<?xml version="1.0" standalone="no"?>
<!DOCTYPE svg PUBLIC "-//W3C//DTD SVG 20010904//EN"
 "http://www.w3.org/TR/2001/REC-SVG-20010904/DTD/svg10.dtd">
<svg version="1.0" xmlns="http://www.w3.org/2000/svg"
 width="599.000000pt" height="599.000000pt" viewBox="0 0 599.000000 599.000000"
 preserveAspectRatio="xMidYMid meet">
<metadata>
Created by potrace 1.14, written by Peter Selinger 2001-2017
</metadata>
<g transform="translate(0.000000,599.000000) scale(0.100000,-0.100000)"
fill="#000000" stroke="none">
<path d="M1627 5975 c-8 -6 -17 -24 -19 -40 -3 -27 -6 -30 -38 -28 -19 1 -29
0 -22 -3 6 -3 12 -12 12 -20 0 -9 -4 -12 -10 -9 -5 3 -10 -1 -10 -9 0 -8 -9
-18 -20 -21 -11 -3 -20 -12 -20 -18 0 -7 -4 -6 -10 3 -9 13 -10 13 -11 0 -1
-8 -1 -21 0 -27 1 -7 -7 -13 -19 -13 -11 0 -20 -7 -20 -15 0 -8 -9 -15 -19
-15 -12 0 -21 -9 -25 -25 -4 -14 -21 -34 -39 -45 -17 -11 -26 -20 -19 -20 6 0
12 -4 12 -10 0 -5 -7 -10 -15 -10 -9 0 -18 -7 -22 -16 -3 -8 -12 -13 -19 -10
-8 3 -14 -1 -14 -8 0 -8 5 -16 12 -18 7 -3 6 -7 -5 -11 -9 -3 -17 -2 -17 2 0
5 -11 4 -25 -2 -14 -7 -25 -15 -25 -19 0 -5 -4 -8 -10 -8 -5 0 -10 8 -10 17 0
13 -3 14 -12 5 -9 -9 -6 -17 13 -33 l24 -21 -23 7 c-19 5 -25 2 -29 -15 -4
-17 -12 -21 -29 -17 -18 3 -24 0 -24 -14 0 -12 -5 -16 -15 -13 -18 7 -20 -7
-3 -24 8 -8 9 -12 1 -12 -6 0 -13 6 -16 13 -4 9 -7 9 -18 -1 -12 -11 -12 -14
0 -21 9 -6 10 -11 2 -15 -6 -4 -11 -2 -11 3 0 6 -15 10 -32 10 -24 -1 -27 -3
-10 -6 25 -5 29 -18 7 -27 -8 -3 -15 -14 -15 -25 0 -14 -9 -23 -26 -27 -17 -4
-23 -11 -20 -21 5 -11 -1 -14 -21 -11 -15 2 -28 -2 -30 -9 -3 -7 0 -13 6 -13
6 0 11 -4 11 -10 0 -5 -7 -7 -16 -3 -22 8 -66 -17 -59 -35 4 -10 0 -13 -15 -9
-11 3 -18 2 -16 -2 7 -11 -42 -61 -59 -61 -8 0 -15 -9 -15 -20 0 -12 -7 -20
-16 -20 -9 0 -14 -6 -11 -13 3 -7 -3 -13 -12 -14 -50 -3 -71 -9 -71 -20 0 -6
5 -15 10 -18 18 -11 10 -23 -20 -30 -17 -4 -28 -10 -25 -15 3 -5 1 -11 -5 -15
-5 -3 -10 -1 -10 4 0 6 -7 11 -16 11 -14 0 -14 -3 -4 -15 7 -8 21 -15 31 -15
11 0 19 -4 19 -10 0 -6 -9 -6 -26 0 -26 10 -44 6 -44 -10 0 -5 7 -7 15 -4 8 4
15 1 15 -4 0 -16 -18 -24 -25 -12 -9 15 -77 1 -93 -19 -12 -14 -13 -14 -8 2 6
20 -9 23 -17 3 -3 -7 -1 -18 5 -24 8 -8 3 -10 -17 -6 -23 4 -26 2 -21 -12 5
-14 4 -15 -9 -4 -20 16 -19 6 1 -26 9 -13 14 -27 11 -30 -3 -3 -8 4 -12 15 -8
27 -22 27 -30 1 -3 -11 -11 -20 -16 -20 -13 0 -11 17 2 26 8 5 6 10 -5 16 -24
13 -38 1 -26 -23 8 -13 8 -24 0 -37 -10 -15 -10 -14 -5 4 7 27 -18 39 -36 18
-9 -11 -15 -12 -25 -3 -10 8 -14 8 -14 0 0 -6 5 -11 10 -11 6 0 10 -5 10 -11
0 -6 -6 -9 -14 -6 -11 4 -13 -1 -10 -21 3 -21 2 -23 -6 -12 -7 11 -10 11 -10
2 0 -7 -5 -18 -10 -25 -6 -7 -17 -21 -25 -32 l-15 -20 7 20 c4 11 15 35 25 54
11 18 17 36 13 39 -3 3 -5 -1 -5 -9 0 -12 -2 -11 -11 1 -9 13 -10 13 -6 -2 3
-9 -1 -22 -9 -28 -8 -7 -14 -21 -14 -32 0 -10 -4 -16 -10 -13 -6 4 -4 17 6 36
8 17 13 33 10 37 -3 3 -6 0 -6 -6 0 -7 -7 -12 -15 -12 -9 0 -15 -9 -15 -25 0
-14 -4 -25 -10 -25 -5 0 -10 9 -10 20 0 11 -4 20 -10 20 -5 0 -10 -7 -10 -15
0 -9 -9 -15 -24 -15 -27 0 -53 -24 -36 -35 5 -3 10 -1 10 4 0 6 4 11 9 11 5 0
7 -9 4 -20 -6 -23 -43 -27 -43 -5 0 8 -4 15 -9 15 -6 0 -10 -125 -11 -299 -1
-284 0 -300 18 -310 18 -10 52 -9 82 2 35 13 71 17 66 8 -5 -8 15 -6 52 5 7 2
14 2 16 1 1 -1 9 3 17 9 8 5 39 11 69 13 79 4 94 6 107 14 6 4 13 1 16 -5 3
-11 9 -11 26 0 11 7 21 9 21 5 0 -5 15 -8 34 -8 19 0 32 3 29 8 -2 4 1 7 7 7
6 0 13 -6 16 -14 3 -7 16 -12 30 -10 16 1 24 -3 24 -12 0 -9 4 -12 10 -9 5 3
22 -5 37 -19 19 -17 31 -22 42 -16 21 11 54 78 86 175 14 44 32 94 40 110 8
17 26 62 40 100 14 39 34 90 45 115 79 191 137 325 165 380 43 89 147 284 154
290 4 3 15 23 26 45 11 22 43 76 71 120 28 44 57 91 64 104 7 14 17 30 21 35
29 37 58 77 84 116 30 45 41 61 60 83 6 7 25 32 42 57 17 25 41 57 54 71 48
52 69 79 69 88 0 5 6 12 13 15 6 3 -15 5 -49 4 -34 -1 -68 -6 -77 -13z m-217
-281 c0 -8 -5 -12 -10 -9 -6 4 -8 11 -5 16 9 14 15 11 15 -7z m-524 -451 c-10
-10 -19 5 -10 18 6 11 8 11 12 0 2 -7 1 -15 -2 -18z m-26 -33 c0 -5 -10 -15
-22 -21 -23 -12 -23 -12 -4 10 21 23 26 26 26 11z m-145 -130 c-3 -5 -10 -10
-16 -10 -5 0 -9 5 -9 10 0 6 7 10 16 10 8 0 12 -4 9 -10z m-35 -10 c0 -5 -2
-10 -4 -10 -3 0 -8 5 -11 10 -3 6 -1 10 4 10 6 0 11 -4 11 -10z m-17 -67 c-7
-2 -19 -2 -25 0 -7 3 -2 5 12 5 14 0 19 -2 13 -5z m-373 -193 c0 -5 -4 -10
-10 -10 -5 0 -10 5 -10 10 0 6 5 10 10 10 6 0 10 -4 10 -10z m41 -23 c-10 -9
-11 -8 -5 6 3 10 9 15 12 12 3 -3 0 -11 -7 -18z"/>
<path d="M1592 5930 c0 -14 2 -19 5 -12 2 6 2 18 0 25 -3 6 -5 1 -5 -13z"/>
<path d="M1501 5864 c0 -11 3 -14 6 -6 3 7 2 16 -1 19 -3 4 -6 -2 -5 -13z"/>
<path d="M960 5380 c-12 -8 -10 -10 8 -10 13 0 20 4 17 10 -7 12 -6 12 -25 0z"/>
<path d="M870 5299 c0 -5 5 -7 10 -4 6 3 10 8 10 11 0 2 -4 4 -10 4 -5 0 -10
-5 -10 -11z"/>
<path d="M777 5220 c-3 -11 -2 -20 3 -20 12 0 21 28 11 35 -5 2 -11 -4 -14
-15z"/>
<path d="M2244 5182 c-10 -10 -27 -16 -36 -14 -12 2 -18 -3 -18 -16 0 -11 -9
-31 -20 -44 -15 -20 -17 -31 -10 -54 5 -16 25 -81 46 -144 34 -105 48 -141
105 -268 10 -23 19 -49 19 -57 0 -20 87 -180 105 -195 26 -22 16 -36 -42 -59
-32 -13 -107 -47 -168 -77 -143 -69 -241 -110 -340 -139 -53 -16 -87 -33 -102
-49 -26 -31 -39 -105 -24 -134 21 -40 132 -41 249 -3 32 9 95 28 142 40 47 12
112 31 145 42 33 11 69 21 80 23 57 9 142 47 246 109 127 76 145 98 156 187 5
43 1 54 -50 141 -30 52 -60 112 -67 134 -7 22 -20 51 -30 65 -28 42 -113 201
-135 255 -35 87 -96 178 -151 228 -60 52 -71 55 -100 29z"/>
<path d="M595 5050 l-20 -9 20 0 c11 0 27 4 35 9 13 9 13 10 0 9 -8 0 -24 -4
-35 -9z"/>
<path d="M520 4989 c0 -5 5 -7 10 -4 6 3 10 8 10 11 0 2 -4 4 -10 4 -5 0 -10
-5 -10 -11z"/>
<path d="M395 4939 c-4 -6 -4 -13 -1 -16 3 -4 6 -1 6 6 0 7 5 9 10 6 6 -3 10
-1 10 4 0 14 -17 14 -25 0z"/>
<path d="M346 4895 c9 -14 19 -24 21 -21 6 6 -20 46 -30 46 -4 0 0 -11 9 -25z"/>
<path d="M70 4759 c0 -5 5 -7 10 -4 6 3 10 8 10 11 0 2 -4 4 -10 4 -5 0 -10
-5 -10 -11z"/>
<path d="M10 4739 c0 -5 5 -7 10 -4 6 3 10 8 10 11 0 2 -4 4 -10 4 -5 0 -10
-5 -10 -11z"/>
<path d="M4105 4473 c-92 -21 -352 -122 -405 -156 -19 -13 -66 -36 -105 -52
-38 -16 -86 -39 -105 -51 -19 -11 -84 -42 -145 -68 -67 -29 -121 -59 -138 -77
-27 -29 -28 -34 -22 -97 8 -87 42 -155 110 -227 30 -31 64 -77 74 -101 40 -90
119 -191 266 -339 180 -182 204 -200 271 -209 l50 -6 27 65 c15 36 27 72 27
79 0 8 -23 34 -50 58 -28 23 -73 72 -99 108 -26 36 -75 98 -107 137 -184 222
-254 317 -254 344 0 20 130 102 228 144 42 18 167 78 277 133 110 55 216 105
236 111 34 11 35 13 34 60 -1 27 -7 56 -14 65 -8 9 -17 31 -20 49 -7 31 -8 32
-61 34 -30 0 -64 -1 -75 -4z"/>
<path d="M845 3368 c-20 -90 -24 -127 -26 -233 -2 -209 21 -389 78 -605 32
-123 108 -353 126 -382 8 -13 37 -66 65 -118 91 -172 148 -274 174 -316 24
-38 242 -298 307 -367 66 -69 238 -196 329 -242 109 -55 306 -119 397 -129 28
-3 70 -10 95 -15 204 -44 302 -56 450 -55 187 1 349 40 472 111 31 18 61 33
66 33 5 0 17 9 27 20 10 11 28 20 40 20 12 0 30 8 41 18 10 9 42 29 71 44 28
14 76 44 105 66 29 22 65 42 80 46 14 3 40 17 56 31 17 14 35 25 42 25 7 0 21
11 32 25 21 27 72 58 81 49 6 -6 70 54 84 79 5 10 17 19 25 21 18 2 175 157
202 199 20 30 36 35 36 11 0 -21 19 -7 30 22 6 15 15 22 25 18 9 -4 15 -1 15
8 0 14 72 68 91 68 4 0 14 10 20 22 6 13 22 34 34 48 12 14 28 43 35 64 11 35
11 41 -6 53 -17 12 -17 13 2 13 15 0 16 2 5 9 -7 5 -10 14 -7 20 14 22 -11 10
-59 -26 -47 -37 -50 -38 -138 -40 -49 -1 -92 -4 -95 -7 -3 -3 -12 -6 -21 -5
-12 0 -11 3 4 9 19 8 19 9 -2 9 -13 1 -23 -3 -23 -8 0 -13 -844 -11 -977 2
-61 6 -110 14 -108 18 3 4 -12 7 -33 7 -20 1 -93 17 -162 38 -69 20 -145 42
-170 49 -25 7 -62 20 -83 29 -20 9 -48 14 -61 10 -18 -4 -32 2 -56 26 -26 25
-37 30 -60 25 -21 -5 -28 -2 -32 13 -4 14 -13 18 -36 16 -17 -1 -36 4 -43 12
-6 8 -17 14 -24 14 -15 0 -28 -27 -19 -41 8 -13 -10 -11 -23 2 -6 6 -9 18 -6
26 5 12 1 14 -16 8 -23 -7 -68 7 -111 35 -14 8 -52 24 -85 35 -33 10 -68 25
-77 33 -9 8 -21 11 -26 8 -5 -3 -31 5 -58 18 -27 13 -60 27 -74 31 -14 4 -43
20 -64 36 -22 16 -46 29 -53 29 -7 0 -40 24 -72 53 -119 106 -204 168 -292
213 -26 13 -73 52 -105 87 -33 35 -77 76 -99 92 -84 59 -171 195 -222 344 -13
39 -81 129 -105 139 -4 2 -10 -7 -13 -20z m226 -565 c39 -49 92 -106 117 -128
25 -22 66 -58 91 -81 66 -58 67 -59 171 -125 52 -33 119 -79 150 -103 74 -58
144 -101 270 -168 150 -79 439 -201 550 -233 89 -25 171 -49 485 -145 79 -24
149 -40 180 -40 28 0 110 -12 181 -26 125 -25 137 -26 394 -20 175 3 289 10
335 20 38 8 72 13 74 10 5 -5 -72 -74 -98 -88 -9 -5 -45 -38 -81 -75 -121
-122 -417 -261 -594 -277 -33 -3 -93 -17 -132 -30 -51 -17 -103 -25 -195 -29
-68 -4 -157 -13 -197 -22 -93 -19 -163 -13 -347 34 -171 43 -296 83 -395 128
-41 18 -111 49 -155 67 -99 42 -341 221 -412 305 -26 31 -79 89 -117 128 -38
38 -89 97 -114 130 -43 58 -112 187 -112 211 0 7 -16 36 -36 65 -48 69 -83
156 -94 233 -5 33 -22 109 -37 168 -30 111 -29 140 4 166 9 6 22 12 29 12 7 0
45 -39 85 -87z"/>
<path d="M490 2941 c0 -5 -12 -21 -27 -38 -54 -58 -62 -71 -50 -77 9 -3 8 -5
-1 -5 -7 -1 -10 -6 -7 -11 3 -6 -1 -13 -9 -16 -9 -3 -14 -9 -11 -14 7 -11 -34
-50 -53 -50 -15 0 -15 -2 -2 -10 12 -8 10 -10 -8 -10 -13 0 -21 -4 -17 -10 3
-5 13 -6 22 -3 11 4 14 3 9 -6 -4 -6 -15 -11 -24 -9 -10 1 -23 -1 -31 -6 -9
-6 -17 -3 -23 8 -10 17 -28 13 -28 -7 0 -8 3 -8 9 1 7 11 9 11 14 -2 4 -9 13
-16 21 -16 15 0 12 -34 -6 -56 -4 -6 -6 -19 -2 -28 3 -9 1 -16 -5 -16 -6 0
-11 5 -11 11 0 5 -5 7 -11 3 -6 -3 -16 0 -21 7 -7 10 -8 6 -5 -14 3 -21 1 -27
-9 -23 -9 3 -14 -1 -14 -12 0 -15 -2 -15 -11 -2 -8 11 -12 12 -16 3 -2 -7 -11
-13 -19 -13 -10 0 -12 -5 -8 -12 6 -10 5 -10 -7 -1 -13 11 -18 9 -29 -12 -7
-13 -17 -22 -22 -19 -5 4 -4 -3 3 -15 10 -14 15 -17 21 -8 6 9 8 9 8 -2 0 -7
6 -11 15 -7 11 4 15 -2 15 -27 0 -18 7 -42 15 -53 8 -10 15 -28 15 -39 1 -11
10 2 20 30 11 31 19 42 19 28 1 -12 6 -25 12 -29 6 -3 9 -19 7 -35 -3 -16 -1
-29 4 -29 4 0 8 6 8 14 0 8 4 18 10 21 6 4 7 -6 4 -25 -5 -23 -2 -34 12 -45
15 -11 16 -15 4 -15 -9 -1 -5 -5 8 -11 13 -5 20 -13 17 -19 -3 -6 3 -10 16
-10 21 0 21 0 -2 -21 -20 -16 -20 -18 -4 -11 11 5 29 6 40 2 18 -7 19 -8 3
-15 -10 -4 -18 -11 -18 -17 0 -5 5 -6 10 -3 6 3 13 -1 16 -9 3 -9 10 -13 15
-10 5 3 9 -3 9 -14 0 -10 10 -24 23 -31 12 -6 14 -9 5 -7 -13 4 -18 0 -18 -14
0 -11 4 -20 9 -20 5 0 16 -7 25 -15 11 -11 21 -13 39 -6 19 8 27 6 31 -5 3 -8
19 -14 42 -14 28 0 35 -3 30 -15 -3 -8 -3 -15 0 -15 13 0 23 53 14 71 -6 10
-7 19 -3 19 12 0 10 64 -2 72 -6 5 -5 8 3 8 7 0 11 4 8 9 -3 4 -8 37 -11 72
-2 35 -7 80 -10 99 -9 54 -13 118 -19 330 -7 254 -13 297 -37 303 -10 3 -19 2
-19 -2z m-40 -91 c0 -5 -5 -10 -11 -10 -5 0 -7 5 -4 10 3 6 8 10 11 10 2 0 4
-4 4 -10z m-335 -370 c3 -5 1 -10 -4 -10 -6 0 -11 5 -11 10 0 6 2 10 4 10 3 0
8 -4 11 -10z m50 -70 c-3 -6 1 -13 9 -16 9 -3 13 -10 10 -15 -3 -5 -12 -2 -20
6 -13 13 -12 35 2 35 3 0 2 -5 -1 -10z m295 -380 c0 -5 -2 -10 -4 -10 -3 0 -8
5 -11 10 -3 6 -1 10 4 10 6 0 11 -4 11 -10z m71 -15 c5 4 9 1 9 -4 0 -6 -7
-11 -15 -11 -8 0 -15 2 -15 4 0 2 -3 13 -6 23 -5 17 -5 17 6 0 6 -9 15 -15 21
-12z"/>
<path d="M96 2846 c5 -20 4 -27 -5 -22 -13 9 -14 -4 -1 -24 8 -12 10 -12 10
-1 0 11 3 11 15 1 20 -16 19 -11 -5 36 -17 33 -19 35 -14 10z"/>
<path d="M50 2820 c0 -5 5 -10 11 -10 5 0 7 5 4 10 -3 6 -8 10 -11 10 -2 0 -4
-4 -4 -10z"/>
<path d="M67 2783 c-4 -3 -7 -13 -7 -22 1 -13 3 -13 11 2 11 19 8 33 -4 20z"/>
<path d="M115 2770 c3 -5 10 -10 16 -10 5 0 9 5 9 10 0 6 -7 10 -16 10 -8 0
-12 -4 -9 -10z"/>
<path d="M8 2733 c7 -3 16 -2 19 1 4 3 -2 6 -13 5 -11 0 -14 -3 -6 -6z"/>
<path d="M139 2720 c-5 -27 -4 -50 2 -50 12 0 18 26 8 41 -5 8 -9 12 -10 9z"/>
<path d="M240 2651 c0 -10 19 -25 25 -20 1 2 -3 10 -11 17 -8 7 -14 8 -14 3z"/>
<path d="M235 2610 c3 -5 8 -10 11 -10 2 0 4 5 4 10 0 6 -5 10 -11 10 -5 0 -7
-4 -4 -10z"/>
<path d="M66 2441 c-3 -5 1 -12 10 -15 22 -8 25 -4 9 11 -8 7 -16 9 -19 4z"/>
<path d="M102 2411 c-11 -7 -11 -9 2 -14 10 -4 16 -1 16 8 0 17 -1 17 -18 6z"/>
<path d="M195 2330 c3 -5 11 -10 16 -10 6 0 7 5 4 10 -3 6 -11 10 -16 10 -6 0
-7 -4 -4 -10z"/>
<path d="M455 1991 c-6 -11 13 -26 22 -17 4 3 0 6 -8 6 -11 0 -11 2 1 10 9 6
10 10 3 10 -6 0 -14 -4 -18 -9z"/>
<path d="M575 1949 c-9 -14 -2 -20 14 -10 8 6 9 11 3 15 -6 3 -14 1 -17 -5z"/>
<path d="M580 1843 c0 -10 4 -14 8 -8 4 6 11 13 16 18 5 4 2 7 -7 7 -10 0 -17
-8 -17 -17z"/>
<path d="M550 1359 c0 -5 5 -7 10 -4 6 3 10 8 10 11 0 2 -4 4 -10 4 -5 0 -10
-5 -10 -11z"/>
<path d="M733 1352 c-7 -4 -9 -13 -4 -21 6 -9 10 -7 14 8 3 12 4 21 4 21 -1 0
-7 -4 -14 -8z"/>
<path d="M760 1250 c0 -5 5 -10 10 -10 6 0 10 5 10 10 0 6 -4 10 -10 10 -5 0
-10 -4 -10 -10z"/>
<path d="M240 1230 c0 -5 5 -10 11 -10 5 0 7 5 4 10 -3 6 -8 10 -11 10 -2 0
-4 -4 -4 -10z"/>
<path d="M760 1210 c0 -5 5 -10 10 -10 6 0 10 5 10 10 0 6 -4 10 -10 10 -5 0
-10 -4 -10 -10z"/>
<path d="M791 1197 c-13 -21 -12 -21 5 -5 10 10 16 20 13 22 -3 3 -11 -5 -18
-17z"/>
<path d="M779 1169 c-8 -24 -2 -59 10 -64 11 -5 11 -8 -5 -20 -11 -8 -14 -15
-6 -15 6 0 12 -5 12 -11 0 -6 -7 -8 -16 -5 -10 4 -14 1 -11 -6 2 -7 11 -12 20
-12 12 1 13 -4 5 -27 -12 -33 -14 -34 -35 -14 -12 12 -18 13 -29 4 -12 -9 -13
-9 -9 3 4 9 -1 18 -9 21 -9 4 -16 1 -16 -6 0 -8 -4 -6 -10 3 -8 12 -10 11 -10
-7 0 -12 6 -24 13 -26 9 -4 9 -6 0 -6 -7 -1 -25 13 -40 29 -14 17 -30 30 -35
30 -5 0 -2 -7 7 -16 9 -9 13 -19 9 -23 -4 -3 -9 0 -11 7 -8 21 -21 13 -16 -10
l5 -23 -21 24 c-12 13 -21 18 -21 13 0 -7 -12 -4 -29 6 -16 9 -27 21 -24 26 4
5 -1 7 -10 3 -9 -3 -20 -1 -23 5 -5 8 -10 5 -15 -8 -6 -16 -8 -15 -8 9 -1 17
-6 27 -16 27 -8 0 -15 7 -15 15 0 21 -20 19 -21 -2 -1 -12 -4 -9 -9 7 -7 25
-9 24 -23 -20 -4 -9 -6 -6 -6 8 -1 12 -6 22 -12 22 -6 0 -9 -9 -6 -20 3 -11 0
-20 -6 -20 -7 0 -3 -7 7 -15 16 -12 17 -17 6 -30 -10 -12 -10 -15 4 -15 10 0
15 -4 12 -9 -3 -5 1 -14 9 -21 8 -7 15 -19 15 -26 0 -8 7 -14 16 -14 8 0 13
-4 9 -9 -3 -5 6 -21 21 -36 22 -22 28 -24 41 -13 14 11 15 10 9 -9 -5 -17 -1
-26 19 -39 26 -17 34 -49 13 -57 -10 -4 -10 -6 0 -6 6 -1 12 -8 12 -16 0 -8 6
-12 15 -9 10 4 13 0 10 -16 -3 -16 0 -20 11 -16 11 4 12 2 4 -14 -12 -23 -13
-41 -1 -21 5 7 14 10 20 7 16 -10 13 -24 -6 -30 -15 -4 -15 -5 2 -4 11 0 29
-1 40 -2 16 -1 15 -3 -7 -12 -16 -5 -28 -14 -28 -19 0 -13 18 -11 23 4 2 6 8
9 12 5 5 -5 3 -19 -3 -32 -9 -21 -9 -24 3 -19 8 3 15 1 15 -5 0 -9 -23 -22
-40 -22 -4 0 -7 7 -6 16 0 9 -10 23 -24 32 l-25 16 20 -22 c15 -18 16 -25 6
-31 -10 -6 -8 -10 6 -13 10 -3 27 -9 37 -14 13 -5 17 -4 13 3 -11 17 42 22 59
6 11 -12 12 -18 3 -29 -17 -20 -21 -17 -14 9 l6 22 -18 -23 c-15 -18 -21 -20
-31 -10 -8 8 -12 8 -12 1 0 -6 -3 -18 -6 -27 -3 -9 -1 -16 5 -16 6 0 11 6 11
14 0 9 7 12 20 9 18 -5 19 -18 2 -18 -4 0 -13 -4 -20 -9 -7 -4 -19 -3 -27 4
-13 11 -13 6 -2 -31 8 -25 12 -50 9 -57 -2 -6 0 -12 5 -12 5 0 8 -13 5 -30 -6
-40 -22 -28 -22 16 0 29 -2 33 -14 22 -8 -7 -10 -14 -5 -16 5 -2 9 -12 9 -22
0 -10 3 -25 6 -34 9 -23 45 -2 38 22 -5 14 -4 15 5 2 6 -8 11 -11 11 -5 0 5 5
4 12 -3 9 -9 9 -15 -1 -24 -12 -11 -13 -9 -7 7 6 20 6 20 -9 0 -10 -12 -12
-21 -5 -23 5 -2 7 -8 4 -14 -4 -6 2 -8 16 -3 16 5 20 4 15 -4 -4 -7 -1 -18 5
-26 7 -8 10 -21 7 -28 -3 -8 -1 -20 4 -28 6 -9 9 -10 9 -2 0 7 6 10 14 7 8 -3
13 -13 11 -22 -2 -9 -4 -23 -4 -31 -1 -11 -4 -11 -16 -1 -9 7 -18 10 -22 6 -9
-9 -1 -15 28 -20 13 -2 23 -9 22 -15 -2 -6 2 -11 7 -11 6 0 10 -5 10 -11 0 -5
-6 -7 -12 -3 -7 5 -3 -5 10 -20 12 -16 22 -35 22 -42 0 -11 87 -13 475 -14
418 0 475 1 475 15 0 8 -4 15 -8 15 -8 0 -23 11 -69 50 -7 5 -19 10 -28 10 -8
0 -15 6 -15 14 0 8 -9 18 -20 21 -11 3 -20 11 -20 17 0 5 -7 8 -15 4 -9 -3
-15 0 -15 9 0 8 -4 15 -10 15 -5 0 -10 -7 -10 -15 0 -8 -5 -15 -11 -15 -5 0
-7 5 -4 10 3 6 1 10 -5 10 -15 0 -40 25 -40 40 0 6 -5 8 -12 4 -8 -5 -9 0 -5
15 3 13 3 20 0 17 -3 -3 -15 6 -25 20 -11 14 -18 28 -14 31 3 4 6 1 6 -5 0 -7
5 -12 10 -12 6 0 6 7 -2 19 -6 10 -18 17 -25 14 -8 -3 -13 3 -13 16 0 16 -6
21 -26 21 -14 0 -23 4 -19 10 3 6 -1 10 -10 10 -24 0 -46 25 -33 38 7 7 4 14
-11 24 -11 7 -21 21 -21 30 0 10 -7 18 -15 18 -8 0 -15 6 -15 14 0 16 -34 31
-50 21 -5 -3 -10 1 -10 10 0 12 -4 13 -17 7 -10 -5 -25 -7 -33 -4 -13 5 -13 3
-1 -11 12 -15 11 -17 -3 -17 -9 0 -16 5 -16 11 0 7 -9 9 -21 6 -15 -4 -19 -2
-15 9 4 9 -2 14 -17 14 -12 0 -29 5 -37 11 -12 8 -9 10 13 6 15 -2 30 0 34 6
3 6 1 7 -5 3 -7 -4 -12 -1 -12 6 0 7 9 19 20 25 10 7 22 28 26 48 3 19 10 35
15 35 5 0 9 5 9 10 0 6 -7 10 -16 10 -8 0 -12 5 -9 10 3 6 2 10 -3 10 -6 0
-19 18 -30 40 -10 22 -23 36 -27 32 -5 -4 -5 -1 -1 6 10 16 -11 42 -29 36 -7
-3 -16 -1 -19 5 -8 12 -36 3 -36 -10 0 -5 10 -14 23 -19 12 -5 16 -9 9 -9 -7
-1 -10 -5 -7 -11 3 -5 0 -7 -8 -4 -17 6 -30 -43 -13 -51 6 -2 1 -2 -11 1 -14
3 -23 1 -23 -6 0 -7 -8 -9 -20 -5 -10 3 -29 1 -41 -5 -15 -8 -19 -9 -15 -1 4
7 -1 11 -13 11 -17 0 -19 4 -11 31 11 36 6 51 -14 43 -17 -7 -26 28 -14 50 8
14 12 15 26 4 13 -11 15 -10 10 10 -4 15 -2 25 8 29 8 3 11 10 7 15 -4 7 4 9
21 6 26 -5 37 6 14 15 -8 3 -6 6 5 6 9 1 17 -5 17 -11 0 -9 4 -8 10 2 5 8 7
23 4 32 -4 14 -1 16 13 12 13 -4 14 -3 5 3 -7 5 -10 17 -7 25 4 9 2 19 -4 23
-6 3 -11 15 -11 26 0 10 -4 19 -9 19 -5 0 -11 9 -14 21 -4 17 -3 18 9 8 12
-10 13 -9 9 4 -4 8 -18 18 -33 22 -25 7 -26 8 -7 15 17 7 17 9 3 9 -28 1 -33
0 -31 -9 1 -4 -3 -10 -10 -13 -8 -3 -14 5 -15 21 -2 23 -10 42 -13 31z m-249
-169 c0 -5 -4 -10 -10 -10 -5 0 -10 5 -10 10 0 6 5 10 10 10 6 0 10 -4 10 -10z
m-15 -30 c3 -6 -1 -7 -9 -4 -18 7 -21 14 -7 14 6 0 13 -4 16 -10z m126 -13
c-10 -9 -11 -8 -5 6 3 10 9 15 12 12 3 -3 0 -11 -7 -18z m163 7 c3 -8 2 -12
-4 -9 -6 3 -10 10 -10 16 0 14 7 11 14 -7z m29 -19 c-3 -9 -8 -14 -10 -11 -3
3 -2 9 2 15 9 16 15 13 8 -4z m-38 -3 c12 -8 13 -37 2 -48 -4 -4 -7 4 -7 19 0
14 -6 28 -12 30 -7 3 -8 6 -3 6 6 0 15 -3 20 -7z m-3 -156 c8 5 9 2 5 -10 -4
-10 -7 -22 -7 -27 0 -5 -7 -9 -16 -9 -10 0 -14 6 -10 15 3 8 1 15 -3 15 -5 0
-11 7 -15 15 -4 13 -2 14 14 5 11 -6 26 -8 32 -4z m-122 -330 c0 -11 -19 -15
-25 -6 -3 5 1 10 9 10 9 0 16 -2 16 -4z m55 -216 c-3 -5 -12 -10 -18 -10 -7 0
-6 4 3 10 19 12 23 12 15 0z m-1 -28 c3 -5 -1 -9 -9 -9 -8 0 -15 4 -15 9 0 4
4 8 9 8 6 0 12 -4 15 -8z m60 -137 c3 -8 1 -15 -4 -15 -6 0 -10 7 -10 15 0 8
2 15 4 15 2 0 6 -7 10 -15z"/>
<path d="M756 1016 c3 -9 11 -16 16 -16 13 0 5 23 -10 28 -7 2 -10 -2 -6 -12z"/>
<path d="M920 871 c0 -4 11 -6 25 -3 14 2 25 6 25 8 0 2 -11 4 -25 4 -14 0
-25 -4 -25 -9z"/>
<path d="M950 850 c20 -13 43 -13 35 0 -3 6 -16 10 -28 10 -18 0 -19 -2 -7
-10z"/>
<path d="M5973 833 c-7 -2 -13 -11 -13 -18 0 -8 -9 -17 -21 -20 -11 -4 -18 -9
-15 -12 7 -8 -45 -62 -67 -69 -15 -5 -17 -8 -6 -14 10 -7 7 -13 -12 -29 -13
-11 -28 -20 -32 -21 -5 0 -5 -5 -2 -10 3 -6 -1 -13 -9 -16 -9 -3 -16 -12 -16
-20 0 -8 -7 -14 -15 -14 -8 0 -15 -5 -15 -11 0 -6 -6 -9 -14 -6 -8 3 -13 -1
-12 -11 0 -9 -5 -16 -11 -15 -7 2 -13 -3 -13 -11 0 -8 -9 -18 -20 -21 -11 -3
-20 -11 -20 -16 0 -14 -57 -68 -64 -61 -3 3 -6 -1 -6 -10 0 -8 -11 -21 -25
-28 -13 -7 -22 -16 -20 -20 4 -7 -19 -22 -37 -24 -4 -1 -20 -16 -36 -34 -21
-23 -32 -29 -35 -20 -4 9 -6 9 -6 1 -1 -15 -68 -83 -75 -76 -2 3 -10 -5 -16
-17 -8 -15 -17 -19 -31 -15 -17 6 -24 -3 -20 -27 0 -5 -4 -8 -10 -8 -5 0 -7
-5 -3 -12 4 -6 3 -8 -3 -5 -6 4 -25 -6 -42 -22 -16 -15 -33 -26 -35 -23 -3 3
-12 0 -19 -6 -8 -7 -18 -8 -23 -4 -4 4 -2 -1 5 -11 12 -15 12 -17 -1 -12 -9 4
-23 -1 -32 -10 -9 -9 -16 -14 -16 -10 0 3 -9 1 -20 -5 -11 -6 -20 -17 -20 -25
0 -13 63 -15 460 -15 l460 0 0 420 c0 231 -1 420 -2 419 -2 0 -9 -3 -15 -6z"/>
<path d="M898 753 c7 -3 16 -2 19 1 4 3 -2 6 -13 5 -11 0 -14 -3 -6 -6z"/>
<path d="M501 301 c-1 -8 -9 -20 -18 -28 -17 -14 -17 -14 0 -9 12 4 21 -1 27
-17 8 -20 9 -20 8 -2 0 25 -16 75 -17 56z"/>
<path d="M640 230 c0 -6 4 -9 9 -5 5 3 12 -5 14 -17 5 -22 5 -21 4 1 -2 24
-27 44 -27 21z"/>
<path d="M556 202 c-3 -5 1 -9 9 -9 8 0 12 4 9 9 -3 4 -7 8 -9 8 -2 0 -6 -4
-9 -8z"/>
</g>
</svg>
